<svg id="Layer_1" data-name="Layer 1" xmlns="http://www.w3.org/2000/svg" viewBox="0 0 47 47.42"><defs><style>.cls-1{fill:#ff3c00;}.cls-2{fill:#fff;}</style></defs><title>AdHubManila Logo</title><ellipse id="_Path_" data-name="&lt;Path&gt;" class="cls-1" cx="23.5" cy="23.71" rx="23.5" ry="23.71"/><g id="Layer_2" data-name="Layer 2"><polygon id="_Path_2" data-name="&lt;Path&gt;" class="cls-2" points="29.85 23.6 29.85 23.62 29.07 24.97 28.87 25.31 28.84 25.31 27.87 23.6 27.84 23.6 27.35 22.74 26.86 21.89 26.89 21.86 28.84 21.86 28.87 21.89 29.07 22.25 29.85 23.6"/><polygon id="_Path_3" data-name="&lt;Path&gt;" class="cls-2" points="36.82 35.68 34.81 35.68 34.27 34.73 33.83 33.97 33.83 33.94 32.83 32.23 32.54 31.72 31.85 30.52 31.85 30.5 31.83 30.5 30.85 28.78 30.83 28.78 30.8 28.71 29.85 27.07 29.85 27.05 30.8 25.41 30.85 25.34 31.83 27.05 31.85 27.05 32.54 28.25 32.83 28.78 32.86 28.78 33.83 30.5 34.27 31.25 34.84 32.23 35.81 33.94 35.84 33.94 36.01 34.26 36.82 35.68"/><polygon id="_Path_4" data-name="&lt;Path&gt;" class="cls-2" points="29.07 28.42 29.07 35.68 27.35 35.68 27.35 31.38 27.87 30.52 27.87 30.5 28.84 28.78 28.87 28.78 29.07 28.42"/><polygon id="_Path_5" data-name="&lt;Path&gt;" class="cls-2" points="20.87 21.89 20.41 22.67 19.87 23.6 19.85 23.6 19.87 23.62 18.87 25.31 18.84 25.31 18.67 25.04 17.86 23.65 17.89 23.6 18.67 22.25 18.87 21.91 18.89 21.86 20.85 21.86 20.87 21.89"/><path id="_Compound_Path_" data-name="&lt;Compound Path&gt;" class="cls-2" d="M21.37,31.86v0l0,0-1-1.66,0,0-.17-.27V37h1.74V32.79Zm-1,1.71,0,0h.07Z" transform="translate(-1.5 -1.29)"/><polygon id="_Path_6" data-name="&lt;Path&gt;" class="cls-2" points="17.86 27.1 16.93 28.68 16.86 28.78 16.84 28.78 16.86 28.81 15.88 30.5 15.84 30.5 15.86 30.54 15.2 31.67 14.88 32.23 14.83 32.23 14.86 32.28 13.88 33.94 13.83 33.94 13.85 34.02 13.46 34.68 12.88 35.68 10.89 35.68 11.75 34.21 11.87 34.04 11.87 34.02 11.9 33.94 12.88 32.28 12.9 32.23 13.46 31.25 13.88 30.57 13.9 30.5 14.88 28.83 14.88 28.78 15.2 28.25 15.86 27.1 15.88 27.05 16.86 25.38 16.93 25.51 17.84 27.05 17.86 27.1"/><polygon id="_Path_7" data-name="&lt;Path&gt;" class="cls-2" points="42.83 35.63 42.78 35.68 40.85 35.68 40.83 35.63 39.85 33.94 39.83 33.92 39.48 33.33 38.85 32.23 38.82 32.23 38.82 32.21 37.84 30.5 37.84 30.47 37.75 30.32 36.87 28.78 36.84 28.76 36.01 27.32 35.86 27.05 35.84 27.02 34.86 25.31 34.84 25.31 34.27 24.31 33.86 23.6 33.86 23.57 32.86 21.86 32.54 21.3 31.88 20.15 31.85 20.15 31.85 20.13 30.88 18.41 30.85 18.41 30.8 18.32 29.87 16.7 29.07 15.31 28.87 14.97 27.89 13.25 27.87 13.25 27.35 12.35 26.89 11.52 26.86 11.49 25.89 9.81 25.89 9.78 25.62 9.34 24.88 8.07 24.88 8.04 23.91 6.36 23.86 6.36 22.88 8.07 22.14 9.34 21.88 9.81 20.87 11.52 20.41 12.35 19.89 13.25 19.87 13.25 18.89 14.97 18.87 14.97 18.89 14.99 18.67 15.33 17.89 16.7 17.86 16.7 17.89 16.73 16.93 18.34 16.89 18.41 16.86 18.41 16.89 18.46 15.88 20.15 15.86 20.15 15.88 20.2 15.2 21.35 14.91 21.86 14.88 21.94 13.9 23.6 13.88 23.65 13.46 24.36 12.9 25.31 12.88 25.38 11.9 27.05 11.87 27.12 11.75 27.32 10.89 28.78 10.87 28.83 10.02 30.32 9.92 30.5 9.87 30.57 8.91 32.23 8.87 32.3 8.28 33.33 7.91 33.94 7.86 34.04 6.91 35.68 4.93 35.68 5.88 34.09 5.88 34.06 5.93 33.94 6.54 32.92 6.88 32.35 6.88 32.33 6.93 32.23 7.89 30.62 7.89 30.59 7.94 30.5 8.28 29.91 8.89 28.88 8.89 28.86 8.91 28.78 9.89 27.12 9.92 27.05 10.02 26.9 10.89 25.38 10.92 25.31 11.75 23.89 11.9 23.67 11.92 23.6 12.88 21.94 12.93 21.86 13.46 20.93 13.88 20.2 13.9 20.15 14.88 18.49 14.91 18.41 15.2 17.93 15.88 16.75 15.91 16.7 16.89 15.02 16.91 14.97 16.93 14.97 16.93 14.92 17.89 13.28 17.89 13.25 18.67 11.91 18.89 11.54 18.89 11.52 19.89 9.81 20.41 8.9 20.9 8.09 20.9 8.07 21.88 6.36 21.9 6.36 22.14 5.92 22.88 4.62 22.9 4.62 23.88 2.91 23.91 2.88 24.88 4.6 24.86 4.62 24.91 4.62 25.62 5.87 25.89 6.31 25.86 6.36 25.91 6.36 26.89 8.04 26.89 8.07 27.35 8.88 27.87 9.76 27.84 9.81 27.89 9.81 28.87 11.52 28.89 11.52 29.07 11.84 29.87 13.23 29.85 13.25 29.9 13.25 30.8 14.84 30.88 14.97 31.88 16.68 31.88 16.7 32.54 17.85 32.86 18.41 32.88 18.41 33.86 20.13 33.83 20.15 33.88 20.15 34.27 20.84 34.86 21.84 34.86 21.86 35.86 23.57 35.86 23.6 36.01 23.84 36.84 25.29 36.82 25.31 36.87 25.31 37.75 26.85 37.84 27.02 37.82 27.05 37.87 27.05 38.85 28.73 38.87 28.78 39.48 29.86 39.83 30.47 39.83 30.5 39.85 30.5 40.83 32.18 40.8 32.23 40.85 32.23 41.2 32.82 41.83 33.89 41.78 33.94 41.85 33.94 42.83 35.63"/><polygon id="_Path_8" data-name="&lt;Path&gt;" class="cls-2" points="32.86 21.86 32.54 22.4 31.85 23.6 30.85 25.31 30.8 25.24 30.8 25.41 29.85 27.05 29.85 27.07 29.07 28.42 28.87 28.78 28.84 28.78 27.87 30.5 27.84 30.5 27.87 30.52 27.35 31.38 26.86 32.23 26.84 32.23 26.86 32.26 25.86 33.94 25.84 33.94 25.86 33.97 25.86 33.99 25.62 34.38 24.86 35.68 22.83 35.68 22.14 34.51 21.85 34.02 21.83 33.94 20.87 32.28 20.82 32.23 20.41 31.5 19.87 30.57 19.87 30.54 19.82 30.5 18.87 28.83 18.84 28.78 18.67 28.51 17.86 27.1 17.84 27.05 16.93 25.51 16.86 25.38 16.84 25.31 15.86 23.65 15.84 23.6 15.2 22.5 14.88 21.94 14.91 21.86 15.2 21.35 15.88 20.2 16.84 21.86 16.86 21.91 16.93 22.03 17.84 23.6 17.86 23.65 18.67 25.04 18.84 25.31 18.87 25.36 19.85 27.05 19.87 27.12 20.41 28.05 20.85 28.78 20.87 28.81 20.87 28.83 21.83 30.5 21.88 30.54 21.88 30.57 22.14 31.03 22.83 32.23 22.85 32.28 23.83 33.94 23.86 34.02 23.88 34.04 23.88 33.94 24.86 32.28 24.88 32.23 25.62 30.96 25.86 30.54 25.89 30.5 26.86 28.81 26.86 28.78 27.35 27.95 27.87 27.07 27.87 27.05 28.87 25.34 28.87 25.31 29.07 24.97 29.85 23.62 29.85 23.6 29.87 23.6 30.8 21.96 30.85 21.86 30.88 21.86 31.85 20.15 31.88 20.15 32.54 21.3 32.86 21.86"/><circle id="_Ellipse_" data-name="&lt;Ellipse&gt;" class="cls-2" cx="23.88" cy="21.89" r="1.74"/><polygon id="_Path_9" data-name="&lt;Path&gt;" class="cls-2" points="24.18 23.6 23.59 23.6 23.87 2.91 23.87 2.91 24.18 23.6"/></g></svg>